#!OML:ASF F:\VICON\USERDATA\INSTALL\rory3\rory3.ASF
:FULLY-SPECIFIED
:DEGREES
124
root 0.6510883443150051 17.906797048320065 36.09432744806086 1.5720115527694245 -1.005135181444258 -0.23211099970441418
lfemur -14.304751721626294 1.9486506962549506 -24.493473018476113
ltibia 55.67670194669946
lfoot -0.005553816373320641 -9.354618899921771
ltoes -8.028352795791587
rfemur -22.208509893636894 4.732453316771365 28.272042545239167
rtibia 66.60858147276113
rfoot 1.494754970736063 -4.901083385951644
rtoes 0.1257792318331783
lowerback 14.123738380618564 -0.12042471505348118 0.5790258481589834
upperback -1.4633687393444674 -0.44071827317528856 1.6289568726958692
thorax -9.17713912771695 0.4230471946675488 1.7511505994629801
lowerneck -20.03500041825692 -3.696834482117324 -2.538709372343801
upperneck 12.652450545932663 -5.4479923464182285 5.050756944762834
head 7.385798236936454 -2.4735636942779697 1.4002219077322657
lclavicle 2.9801515526439752e-15 1.1900897868484632e-16
lhumerus -45.031826545561444 -12.036347460762276 95.90791966990221
lradius 113.05601220920343
lwrist 34.232547702262735
lhand -20.592309987155062 2.91220798302619
lfingers 7.125019999999999
lthumb 5.44467438061631 32.28468019036578
rclavicle 2.9801381671163078e-15 1.1900166246856291e-16
rhumerus -55.51431252902702 9.149421116143449 -97.19938437870724
rradius 110.51972153105471
rwrist -15.373845730893072
rhand -15.720457114366601 38.39824359807077
rfingers 7.125019999999999
rthumb 10.436132883456263 8.401249781487177
125
root 0.6511056840038787 17.894791587823534 35.671641349230725 1.4462987632536792 -1.1201777157977357 -0.1946680945515602
lfemur -9.039186917496181 3.822922985759052 -21.55252802278495
ltibia 59.370202150373714
lfoot -2.044904957888064 -9.415818929427825
ltoes -8.850429826703335
rfemur -22.593230917923474 4.509606529575713 28.132551665610933
rtibia 68.27843102121389
rfoot 2.117606347018516 -4.465343740808834
rtoes 0.8297149556179264
lowerback 14.232603932759124 -0.08098515256807237 0.7137906085630228
upperback -1.4275296542025144 -0.4399367711861517 1.656167771607942
thorax -9.053123689167188 0.6250059773684042 2.049143063192947
lowerneck -20.03537931675371 -3.7141383433287998 -2.510461817344448
upperneck 12.568584696823175 -5.519608023360234 4.994087877202075
head 7.37841538360169 -2.4674864412709896 1.3991638626838767
lclavicle 2.9801515526439752e-15 1.1900897868484632e-16
lhumerus -47.454567000261655 -12.795427568083815 95.56513736412215
lradius 113.16370822917419
lwrist 34.343642046955324
lhand -20.568637810940075 2.895404492560279
lfingers 7.125019999999999
lthumb 5.472154822246089 32.26982629384848
rclavicle 2.9801381671163078e-15 1.1900166246856291e-16
rhumerus -55.160250974178815 9.074209274100182 -97.03480572607211
rradius 110.73711995019488
rwrist -15.331448047461452
rhand -15.734022664894017 38.371810031881395
rfingers 7.125019999999999
rthumb 10.491799713402754 8.432766885019369
126
root 0.6477320440291362 17.87388683443285 34.959786177030914 1.3610947521222483 -1.2752863636833953 -0.2459425948385916
lfemur -15.048366543419005 3.210346065615699 -23.03781893313374
ltibia 63.397284205913735
lfoot -1.0930651182437965 -8.241877745673817
ltoes -9.510329875187772
rfemur -20.21780650710858 4.936109002104715 28.986116981069816
rtibia 69.60201520630113
rfoot 2.1764747502342217 -4.2447118066084775
rtoes 1.036254355076008
lowerback 14.368327523204377 -0.01096988556775591 0.872560854970918
upperback -1.3789549740465536 -0.4239880522222048 1.6697330012049267
thorax -9.332110690069781 0.2721133694301369 1.1461050930174264
lowerneck -20.092026001858567 -3.7715657050891727 -2.48476431377707
upperneck 12.598413578348069 -5.517013398003174 5.03463544056936
head 7.360451656065085 -2.4561255307270438 1.3980203628640557
lclavicle 2.9801515526439752e-15 1.1900897868484632e-16
lhumerus -46.612449984078296 -12.125519071820825 95.97367878869584
lradius 113.3411297034056
lwrist 34.394444931219205
lhand -20.549766430382927 2.9074010189554373
lfingers 7.125019999999999
lthumb 5.562761713202755 32.27270554150205
rclavicle 2.9801381671163078e-15 1.1900166246856291e-16
rhumerus -54.53092440683933 9.081355141282444 -96.8510383005247
rradius 110.88422061112688
rwrist -15.263918075629721
rhand -15.748697307904873 38.37413130049526
rfingers 7.125019999999999
rthumb 10.41598416352553 8.35592201637786
127
root 0.6464805013337315 17.852630364412885 35.034449144850406 1.2756707445877369 -1.3409257425021233 -0.24559637201072926
lfemur -13.991517436653798 4.005543450620248 -21.896187602283305
ltibia 67.60243627073638
lfoot -1.7711839717499311 -8.151147905185567
ltoes -9.499339718025597
rfemur -21.365384224076532 4.2370736534338445 28.666857183365728
rtibia 70.65143229128465
rfoot 1.8736764567117086 -4.33857997746197
rtoes 1.6073356149768716
lowerback 14.501963179056789 0.08544657469449357 0.9840460425170511
upperback -1.30502536908836 -0.35865367188154096 1.6842699506248222
thorax -9.084919873467834 0.6288002825828445 1.6032139810319226
lowerneck -20.10022768102632 -3.7988497105131267 -2.4560178091629123
upperneck 12.547430092538429 -5.596909976844917 4.976683731298531
head 7.351469785038726 -2.41620418166376 1.416691047669078
lclavicle 2.9801515526439752e-15 1.1900897868484632e-16
lhumerus -49.07432263630377 -12.900592599280658 95.64489543489461
lradius 113.47445126665258
lwrist 34.358090696201614
lhand -20.58028615793277 2.858252989035833
lfingers 7.125019999999999
lthumb 5.593959498035484 32.23324508039037
rclavicle 2.9801381671163078e-15 1.1900166246856291e-16
rhumerus -53.88994926479778 9.071734797633209 -96.69452131680391
rradius 110.93011382096218
rwrist -15.230820689494072
rhand -15.747755313202445 38.409383003734916
rfingers 7.125019999999999
rthumb 10.514677164263292 8.436691024526597
